<?xml version="1.0" encoding="UTF-8" standalone="no"?>
<!-- Created with Inkscape (http://www.inkscape.org/) -->

<svg
   xmlns:dc="http://purl.org/dc/elements/1.1/"
   xmlns:cc="http://creativecommons.org/ns#"
   xmlns:rdf="http://www.w3.org/1999/02/22-rdf-syntax-ns#"
   xmlns:svg="http://www.w3.org/2000/svg"
   xmlns="http://www.w3.org/2000/svg"
   xmlns:sodipodi="http://sodipodi.sourceforge.net/DTD/sodipodi-0.dtd"
   xmlns:inkscape="http://www.inkscape.org/namespaces/inkscape"
   version="1.1"
   id="svg2"
   xml:space="preserve"
   width="4096"
   height="4096"
   viewBox="0 0 4096 4095.9999"
   sodipodi:docname="puma-logo.svg"
   inkscape:export-filename="G:\Users\suitedoalex\sites\puma-logo-0.png"
   inkscape:export-xdpi="96"
   inkscape:export-ydpi="96"
   inkscape:version="0.92.2 (5c3e80d, 2017-08-06)"><metadata
     id="metadata8"><rdf:RDF><cc:Work
         rdf:about=""><dc:format>image/svg+xml</dc:format><dc:type
           rdf:resource="http://purl.org/dc/dcmitype/StillImage" /><dc:title></dc:title></cc:Work></rdf:RDF></metadata><defs
     id="defs6"><clipPath
       clipPathUnits="userSpaceOnUse"
       id="clipPath18"><path
         d="M 0,0 H 595.275 V 841.89 H 0 Z"
         id="path16"
         inkscape:connector-curvature="0" /></clipPath><clipPath
       clipPathUnits="userSpaceOnUse"
       id="clipPath32"><path
         d="M 0,0 H 595.276 V 841.89 H 0 Z"
         id="path30"
         inkscape:connector-curvature="0" /></clipPath></defs><sodipodi:namedview
     pagecolor="#ffffff"
     bordercolor="#666666"
     borderopacity="1"
     objecttolerance="10"
     gridtolerance="10"
     guidetolerance="10"
     inkscape:pageopacity="0"
     inkscape:pageshadow="2"
     inkscape:window-width="1600"
     inkscape:window-height="837"
     id="namedview4"
     showgrid="false"
     inkscape:zoom="0.074331503"
     inkscape:cx="1205.8761"
     inkscape:cy="2709.9846"
     inkscape:window-x="-8"
     inkscape:window-y="-8"
     inkscape:window-maximized="1"
     inkscape:current-layer="g10" /><g
     id="g10"
     inkscape:groupmode="layer"
     inkscape:label="puma-logo"
     transform="matrix(1.3333333,0,0,-1.3333333,0,4096)"><g
       id="g12"
       inkscape:export-filename="G:\Users\suitedoalex\sites\puma-logo-4.png"
       inkscape:export-xdpi="12.1164"
       inkscape:export-ydpi="12.1164" /><g
       id="g26"
       transform="matrix(23.292587,0,0,23.292587,-5581.0712,-909.10455)"
       inkscape:export-filename="G:\Users\suitedoalex\sites\puma-logo-4.png"
       inkscape:export-xdpi="12.1164"
       inkscape:export-ydpi="12.1164"><g
         id="g28"
         clip-path="url(#clipPath32)"><g
           id="g34"
           transform="translate(309.5195,130.4059)"><path
             d="m 0,0 c -0.331,-0.046 -0.652,-1.282 -1.299,-1.922 -0.472,-0.458 -1.052,-0.431 -1.373,-1.008 -0.121,-0.216 -0.073,-0.583 -0.204,-0.919 -0.277,-0.703 -1.192,-0.774 -1.197,-1.528 0,-0.83 0.769,-0.985 1.44,-1.567 0.536,-0.465 0.579,-0.793 1.207,-1.015 0.554,-0.189 1.363,0.412 2.083,0.195 0.598,-0.177 1.173,-0.299 1.304,-0.927 0.117,-0.56 0,-1.436 -0.735,-1.338 -0.248,0.034 -1.294,0.384 -2.594,0.243 -1.571,-0.168 -3.362,-0.676 -3.537,-2.428 -0.093,-0.976 1.114,-2.122 2.282,-1.895 0.808,0.155 0.423,1.107 0.866,1.569 0.574,0.591 3.835,-2.066 6.866,-2.066 1.28,0 2.229,0.324 3.178,1.324 0.083,0.061 0.204,0.221 0.336,0.238 0.121,-0.017 0.35,-0.141 0.418,-0.192 2.452,-1.963 4.297,-5.9 13.275,-5.946 1.255,-0.015 2.701,-0.611 3.888,-1.699 1.041,-0.948 1.659,-2.462 2.243,-3.99 0.91,-2.306 2.516,-4.53 4.964,-7.012 0.131,-0.141 2.145,-1.703 2.297,-1.815 0.023,-0.024 0.179,-0.365 0.116,-0.559 -0.044,-1.509 -0.268,-5.84 2.954,-6.02 0.793,-0.044 0.594,0.506 0.594,0.9 -0.01,0.745 -0.142,1.494 0.248,2.273 0.549,1.046 -1.139,1.552 -1.105,3.839 0.039,1.713 -1.397,1.421 -2.131,2.73 -0.414,0.754 -0.794,1.163 -0.759,2.073 0.16,5.2 -1.115,8.632 -1.742,9.462 -0.497,0.643 -0.915,0.876 -0.453,1.178 2.696,1.786 3.304,3.438 3.304,3.438 1.431,3.372 2.725,6.443 4.496,7.81 0.36,0.265 1.28,0.958 1.845,1.224 1.659,0.79 2.535,1.267 3.007,1.725 0.773,0.737 1.377,2.301 0.637,3.233 -0.905,1.163 -2.486,0.229 -3.173,-0.175 -4.953,-2.946 -5.683,-8.129 -7.4,-11.102 -1.358,-2.375 -3.582,-4.131 -5.587,-4.27 -1.489,-0.102 -3.095,0.185 -4.701,0.888 -3.907,1.708 -6.019,3.913 -6.525,4.307 -1.056,0.807 -9.163,8.778 -15.762,9.106 0,0 -0.807,1.638 -1.007,1.667 C 2.078,0.085 1.586,-0.959 1.226,-1.066 0.905,-1.18 0.335,0.054 0,0"
             style="fill:#231f20;fill-opacity:1;fill-rule:nonzero;stroke:none"
             id="path36"
             inkscape:connector-curvature="0" /></g><g
           id="g38"
           transform="translate(280.5464,82.8105)"><path
             d="m 0,0 c -0.623,0.029 -1.144,0.526 -1.144,1.143 l 0.005,20.54 H -7.902 V -0.949 c 0,-1.109 0.895,-2.01 1.985,-2.01 H 5.917 c 1.115,0 2.01,0.901 2.01,2.01 V 21.683 H 1.153 V 1.143 C 1.153,0.526 0.618,0.029 0,0"
             style="fill:#231f20;fill-opacity:1;fill-rule:nonzero;stroke:none"
             id="path40"
             inkscape:connector-curvature="0" /></g><g
           id="g42"
           transform="translate(303.1934,104.4938)"><path
             d="m 0,0 h -10.224 c -1.212,0 -2.194,-0.983 -2.194,-2.219 v -22.423 h 6.759 v 20.579 c 0.014,0.623 0.535,1.129 1.153,1.129 0.618,0 1.144,-0.487 1.153,-1.12 v -20.588 h 6.74 v 20.588 c 0.009,0.633 0.51,1.12 1.148,1.12 0.633,0 1.139,-0.506 1.153,-1.129 v -20.579 h 6.76 V -2.219 C 12.448,-0.983 11.475,0 10.258,0 Z"
             style="fill:#231f20;fill-opacity:1;fill-rule:nonzero;stroke:none"
             id="path44"
             inkscape:connector-curvature="0" /></g><g
           id="g46"
           transform="translate(263.5933,100.3965)"><path
             d="m 0,0 c 0,0.676 -0.56,1.153 -1.158,1.153 h -1.149 v -12.467 h 1.149 c 0.603,0 1.158,0.477 1.158,1.173 z m 4.54,-14.355 h -6.847 v -6.19 H -9.066 V 4.097 H 4.579 c 1.231,0 2.17,-0.983 2.17,-2.219 v -14.019 c 0,-1.226 -0.988,-2.214 -2.209,-2.214"
             style="fill:#231f20;fill-opacity:1;fill-rule:nonzero;stroke:none"
             id="path48"
             inkscape:connector-curvature="0" /></g><g
           id="g50"
           transform="translate(327.0083,89.0827)"><path
             d="m 0,0 v 11.348 c -0.024,0.628 -0.541,1.114 -1.159,1.114 -0.622,0 -1.129,-0.496 -1.157,-1.129 V 0 Z m 0,-9.231 v 6.185 h -2.302 v -6.185 h -6.764 v 22.423 c 0,1.236 0.983,2.219 2.205,2.219 H 4.554 c 1.222,0 2.21,-0.983 2.21,-2.219 V -9.231 Z"
             style="fill:#231f20;fill-opacity:1;fill-rule:nonzero;stroke:none"
             id="path52"
             inkscape:connector-curvature="0" /></g><g
           id="g54"
           transform="translate(345.8203,84.1048)"><path
             d="m 0,0 c 0,-2.618 -2.087,-4.735 -4.667,-4.735 -2.618,0 -4.725,2.112 -4.725,4.735 0,2.564 2.107,4.701 4.633,4.701 C -2.087,4.701 0,2.632 0,0 m -4.725,4.005 c -2.112,0 -3.898,-1.825 -3.898,-4.024 0,-2.249 1.786,-4.044 3.956,-4.044 2.176,0 3.918,1.795 3.918,4.044 0,2.209 -1.742,4.024 -3.918,4.024 z"
             style="fill:#231f20;fill-opacity:1;fill-rule:nonzero;stroke:none"
             id="path56"
             inkscape:connector-curvature="0" /></g><g
           id="g58"
           transform="translate(343.3437,81.3699)"><path
             d="M 0,0 H -1.246 L -2.861,2.131 V 0 h -1.037 v 5.416 h 1.105 c 1.445,0 2.229,-0.545 2.229,-1.591 0,-0.711 -0.463,-1.329 -1.105,-1.509 L -1.723,2.282 Z m -2.671,3.027 c 0.729,0 1.109,0.267 1.109,0.769 0,0.472 -0.38,0.71 -1.09,0.71 H -2.861 V 3.027 Z"
             style="fill:#231f20;fill-opacity:1;fill-rule:nonzero;stroke:none"
             id="path60"
             inkscape:connector-curvature="0" /></g></g></g></g></svg>